<svg height="40" viewBox="0 0 176 40" width="176" xmlns="http://www.w3.org/2000/svg" xmlns:xlink="http://www.w3.org/1999/xlink"><mask id="a" fill="#fff"><path d="m0 .35698925h36.731902v36.28602155h-36.731902z" fill="#fff" fill-rule="evenodd"/></mask><mask id="b" fill="#fff"><path d="m0 .38529032h22.8773255v26.71145858h-22.8773255z" fill="#fff" fill-rule="evenodd"/></mask><g fill="#0d318f" fill-rule="evenodd"><path d="m29.4093843 1.78425806c0 .98580646-.8010588 1.78494624-1.7893333 1.78494624s-1.7906275-.79913978-1.7906275-1.78494624c0-.98537634.802353-1.78408602 1.7906275-1.78408602s1.7893333.79870968 1.7893333 1.78408602"/><path d="m14.4495137.35698925c2.5580392.12086021 5.1428236.46494623 7.6637647 1.07139785 2.5239608.61204301 5.0129804 1.47225806 7.3863922 2.75483871 1.184549.64430107 2.3401961 1.39784946 3.4220784 2.32946236 1.0749804.93290323 2.0947451 2.05204301 2.8427451 3.47182796.3714118.70709677.6647451 1.49204297.8256471 2.32172047.081098.4146236.1289804.8387096.1389019 1.2636559.003451.1058064.003451.2124731.0017255.3182795l-.0038823.1832258-.006902.1109678c-.0133725.2425806-.0345098.4443011-.0647059.6537634-.118196.8365592-.3809019 1.6344086-.7350588 2.3470968-.3528627.7152688-.7932941 1.3475269-1.2721176 1.907957-.9636863 1.12-2.0731765 1.9621505-3.2115687 2.655914-1.1427058.6903226-2.3246666 1.2301075-3.5217255 1.6726881-2.3954117.8808603-4.8486274 1.3858065-7.2996862 1.6567742-1.2268236.1329033-2.4536471.2047312-3.677451.2193549-1.2242353.0180645-2.4467451-.0305377-3.6459608-.1144086-1.2039608-.0825807-2.4187059-.2021506-3.62352941-.3991398-1.20568627-.1948387-2.39152941-.4696774-3.55105882-.787957l.68890196-.3376344-6.80619608 12.9862366 5.69239216-13.5105377.17254902-.4215054.51549019.083871c1.15780393.1888172 2.31129412.3286022 3.46478432.3905376 1.15349016.0645162 2.31215686.0550538 3.47901956.0107527 1.1724706-.0460215 2.3242353-.112258 3.4686667-.2468817 1.144-.1298925 2.2780784-.3131183 3.3953333-.5501075 2.2301961-.4765592 4.4047451-1.1703226 6.3804314-2.1363441.9856863-.4825806 1.9191765-1.036129 2.7491373-1.6627957.8273725-.6249462 1.5512157-1.3311828 2.0572157-2.071828.5107451-.7423655.7751764-1.4950537.7829411-2.1716129.0107843-.6851613-.1997255-1.3169892-.6354117-1.9587096-.4322353-.6382796-1.0892157-1.2550538-1.8652549-1.7926882-.7777647-.539785-1.6707059-1.00645162-2.6171373-1.40000001-1.8971765-.78752688-3.9949412-1.29333333-6.1250588-1.58193548-1.066353-.14408603-2.1456471-.23268818-3.2275294-.27139785-.5409412-.01935484-1.0827451-.02537635-1.624549-.02021506-.2713334.00301076-.5426667.00903226-.8131373.01806452l-.8230588.03569892z" mask="url(#a)" transform="translate(0 2.764215)"/><path d="m3.11312941 20.3784086c.36407843.0266667.81529412-.0189247 1.29282353-.1324731.96239216-.2253764 2.02356863-.7139785 3.0532549-1.3488172 1.03443138-.6361291 2.04945098-1.4172043 3.02607846-2.2774194.9774902-.8619355 1.9196078-1.8055914 2.827647-2.7969892 1.8156471-1.9866667 3.4962745-4.16258067 5.0794118-6.42279572 1.5831373-2.26193549 3.0696471-4.61333333 4.4849804-7.01462366-.8812941 2.64344086-1.8458431 5.26924731-2.9406667 7.86236559-1.0974117 2.59182799-2.3190588 5.15354839-3.7766666 7.64645159-.7298824 1.2455914-1.5201569 2.4735484-2.4040393 3.6683871-.8851764 1.1944086-1.8609411 2.3595699-2.9976078 3.4537635-1.14054902 1.0890322-2.43596079 2.124301-4.05403922 2.9372043-.81098039.4017204-1.70435294.7458064-2.7185098.956129-.50686275.104086-1.0434902.1737634-1.62584314.1858064-.29160784.0051613-.594-.0038709-.92011765-.0374193-.16349019-.0172043-.3330196-.04-.5185098-.0748387-.0927451-.0176344-.18980392-.0382796-.29764706-.0649463-.11086274-.028387-.42662745-.0972043-.6237647-.1677419 0 0 2.93290196-6.3849462 3.11321568-6.372043" mask="url(#b)" transform="translate(0 12.656688)"/><path d="m50.7597804 11.3927742h.8299608c1.6219608 0 2.8138431-.2963441 3.5739215-.8907527.7609412-.59354838 1.1409804-1.2916129 1.1409804-2.09290322 0-.45204301-.1199215-.86193548-.3597647-1.23010753-.2394117-.36774193-.6103921-.65763441-1.1133725-.86838709-.5021177-.21204301-1.3066275-.31784947-2.4118039-.31784947h-1.6599216zm-4.3262353 5.5436559v-13.16215053h7.2901961c2.1197647 0 3.6101568.16946237 4.4720392.5083871.8618823.33849462 1.5123921.81806451 1.9498039 1.43741935.4378432.61935484.6569804 1.39870968.6569804 2.33892473 0 1.80731183-.7462745 3.18451615-2.2401176 4.13161295-1.4929804.9479569-3.4949804 1.4210752-6.0047059 1.4210752h-1.7979608v7.3630108z"/><path d="m63.6916824 20.1247312v-12.00172045h4.2403921v2.26236555c.5064314-.77204297 1.1979216-1.38838705 2.0774902-1.84688168.8782745-.45978494 1.8570588-.68903225 2.9363529-.68903225.2579608 0 .5206667.02193548.7885491.06537634v2.88559139c-.5922745-.1668817-1.1517647-.2511828-1.6763138-.2511828-.8403137 0-1.6042745.1621505-2.2918823.4864516-.6884706.3243011-1.2992941.8146237-1.8341961 1.4701076v7.6189247z"/><path d="m78.9405294 12.7700645h5.5724706c0-1.100215-.2376863-1.8873118-.7134902-2.3608602-.477098-.47354839-1.0922353-.71096774-1.8462745-.71096774-.8204706 0-1.4942745.26150538-2.0227059.78193544-.5284314.5212904-.8584314 1.2843011-.99 2.2898925zm9.7412549 6.7772043c-2.0028627.4516129-3.9009019.6774194-5.6954118.6774194-1.6996078 0-3.1874117-.2421506-4.4647058-.7264516-1.2764314-.4847312-2.2586667-1.2425807-2.9471373-2.2739785-.6880392-1.0309678-1.0318431-2.1513979-1.0318431-3.3608603 0-1.1221505.2911764-2.1591397.8752549-3.1096774.5840784-.95096771 1.4330196-1.70150535 2.548549-2.25161287 1.1155294-.55010753 2.4898823-.82580645 4.1226274-.82580645 2.0024314 0 3.6023922.48860215 4.7990197 1.46494623 1.196196.97634409 1.793647 2.79526879 1.793647 5.45419359h-9.669647c.0944705.8090322.3334509 1.4464516.7169411 1.9126881.3834902.4666667.9015687.8365592 1.5546667 1.1096775.6535294.2731182 1.5292157.4103225 2.6266274.4103225 1.4105883 0 3.0014902-.2516129 4.7714118-.7544086z"/><path d="m92.6720235 19.9516559v-9.97978493h-2.1637647v-2.02193549h2.1637647v-.86365591c0-1.67569892.5038432-2.87268817 1.5115294-3.59096774 1.0076863-.71741936 2.4372549-1.07655914 4.2908628-1.07655914 1.2514118 0 2.5403533.13892473 3.8681173.41548387v2.18580645c-1.20396-.38537634-2.283255-.57892473-3.237882-.57892473-.4490588 0-.8334118.06752688-1.1534902.20172043-.3200784.13548387-.5728628.36129032-.7587843.67784946-.186353.31784946-.2799608.86580645-.2799608 1.6455914v.98365591h3.9824313v2.02193549h-3.9824313v9.97978493z"/><path d="m106.475945 12.7700645h5.572471c0-1.100215-.237687-1.8873118-.713491-2.3608602-.477098-.47354839-1.092235-.71096774-1.846274-.71096774-.820471 0-1.494275.26150538-2.022706.78193544-.528431.5212904-.857569 1.2843011-.99 2.2898925zm9.741255 6.7772043c-2.002863.4516129-3.900902.6774194-5.695412.6774194-1.699608 0-3.187412-.2421506-4.463843-.7264516-1.277294-.4847312-2.259529-1.2425807-2.948-2.2739785-.688039-1.0309678-1.031843-2.1513979-1.031843-3.3608603 0-1.1221505.291176-2.1591397.875255-3.1096774.584078-.95096771 1.433019-1.70150535 2.548549-2.25161287 1.115529-.55010753 2.489882-.82580645 4.122627-.82580645 2.003294 0 3.602392.48860215 4.79902 1.46494623 1.196196.97634409 1.793647 2.79526879 1.793647 5.45419359h-9.669647c.094471.8090322.333451 1.4464516.716941 1.9126881.38349.4666667.901569.8365592 1.55553 1.1096775.652666.2731182 1.528352.4103225 2.625764.4103225 1.410588 0 3.00149-.2516129 4.771412-.7544086z"/><path d="m119.763384 19.9516559v-12.00172042h4.240392v2.26236562c.506432-.77204304 1.198785-1.38795701 2.077491-1.84688175.878274-.45935483 1.857921-.68903225 2.937215-.68903225.257961 0 .519804.02193548.787687.06537634v2.88559136c-.592275-.1668817-1.150902-.2511828-1.676314-.2511828-.840314 0-1.604275.1621506-2.291882.4864517-.688471.324301-1.299295.8146236-1.834197 1.4701075v7.6189247z"/><path d="m132.191443 19.9516559v-12.00172042h4.240392v2.26236562c.506432-.77204304 1.198785-1.38795701 2.07749-1.84688175.879138-.45935483 1.857922-.68903225 2.937216-.68903225.257961 0 .519804.02193548.787686.06537634v2.88559136c-.592274-.1668817-1.150902-.2511828-1.675882-.2511828-.840745 0-1.604706.1621506-2.292314.4864517-.687607.324301-1.299294.8146236-1.834196 1.4701075v7.6189247z"/><path d="m147.613875 12.7700645h5.573333c0-1.100215-.238549-1.8873118-.714353-2.3608602-.476235-.47354839-1.092235-.71096774-1.846275-.71096774-.82047 0-1.494274.26150538-2.022705.78193544-.527569.5212904-.857569 1.2843011-.99 2.2898925zm9.742117 6.7772043c-2.002863.4516129-3.901765.6774194-5.695412.6774194-1.699607 0-3.187411-.2421506-4.464705-.7264516-1.276432-.4847312-2.25953-1.2425807-2.948-2.2739785-.687177-1.0309678-1.031844-2.1513979-1.031844-3.3608603 0-1.1221505.291177-2.1591397.875255-3.1096774.584079-.95096771 1.433883-1.70150535 2.549412-2.25161287 1.115529-.55010753 2.489882-.82580645 4.122627-.82580645 2.002432 0 3.60153.48860215 4.798157 1.46494623 1.196196.97634409 1.79451 2.79526879 1.79451 5.45419359h-9.67051c.094471.8090322.333451 1.4464516.716942 1.9126881.38349.4666667.902431.8365592 1.555529 1.1096775.652667.2731182 1.528353.4103225 2.626627.4103225 1.410589 0 3.001059-.2516129 4.771412-.7544086z"/><path d="m170.657753 11.0849032c-.579765-.5096774-1.126314-.8546236-1.64051-1.0369892-.513765-.18193551-1.037019-.27268819-1.570196-.27268819-1.121569 0-1.960588.42064519-2.516627 1.26064519-.55604.8408602-.834275 1.8288172-.834275 2.9634408 0 1.1208602.259686 2.0137635.778628 2.68.518078.6658065 1.268666.9987097 2.25047.9987097.625922 0 1.244941-.1686021 1.856628-.5075269.612549-.3384946 1.171176-.7845161 1.675882-1.3372043zm0 8.8666667v-2.2735484c-.53749.8490323-1.227686 1.4855914-2.071882 1.9101075-.844196.4240861-1.845844.6365592-3.005373.6365592-1.904941 0-3.379804-.5445162-4.427176-1.6339785-1.04651-1.0890323-1.569765-2.5268817-1.569765-4.3122581 0-1.8868817.584941-3.4593548 1.753529-4.71655913 1.169451-1.25677419 2.800471-1.88559139 4.893922-1.88559139.565529 0 1.08447.0460215 1.555529.13677419.471922.09118279.924.23182796 1.357961.42107527.433961.18967742.937804.49892473 1.513255.92903226v-6.47096775h4.240392v17.25935485z"/><path d="m46.4334157 36.4070538-.0211373-17.739785 13.7172157 12.6133334v-11.0507527h3.538549v16.1772043h-3.9582745l-9.7378039-9.4335484v9.4335484z"/><path d="m70.5102588 29.2254624h5.5733334c0-1.1002151-.2385491-1.8868818-.714353-2.3604301-.477098-.4739785-1.0922353-.7109678-1.8462745-.7109678-.8204706 0-1.4942745.2606452-2.0227059.7815054-.5284313.5212903-.8575686 1.2843011-.99 2.2898925zm9.7421177 6.7772043c-2.0037255.4516129-3.9017647.6774193-5.6962745.6774193-1.6996079 0-3.1874118-.2417204-4.4638432-.7264516-1.2772941-.4847312-2.2595294-1.2425806-2.948-2.2735484-.6880392-1.0313978-1.0318431-2.1518279-1.0318431-3.3612903 0-1.1217204.2911765-2.1591398.8752549-3.1092473.5840784-.951828 1.4330196-1.7023656 2.5494118-2.2524731 1.1146666-.5501076 2.4898823-.8249463 4.1226274-.8249463 2.0024314 0 3.6015294.4881721 4.7981569 1.4640861 1.196196.9772043 1.7945098 2.7952688 1.7945098 5.4546236h-9.6705098c.0944706.8090323.3334509 1.4464516.7169411 1.9126882.3834902.4670968.9015687.8365591 1.5555295 1.1096774.6526666.2731183 1.5283529.4103226 2.6266274.4103226 1.4105882 0 3.0006275-.2516129 4.7714118-.7544086z"/><path d="m91.3492627 36.3415484c-1.0128627.2258064-1.8104705.3384946-2.3928235.3384946-1.3842745 0-2.4592549-.1496774-3.2227843-.4477419-.7648235-.2989248-1.3376863-.7058065-1.719451-1.2189248-.3817647-.5139785-.5728627-1.2696774-.5728627-2.2679569v-6.3182796h-1.7625883v-2.0219355h1.7625883l4.2403921-2.3935484v2.3935484h3.3668628v2.0219355h-3.3668628v5.883871c0 .8662365.2005883 1.4498924.6017647 1.752258.4007451.3015054.9891373.4529032 1.7625883.4529032.3619215 0 .7967451-.0438709 1.3031764-.1311828z"/><path d="m96.4540824 36.4070538-4.3792942-12.0017205h3.9436079l3.0972549 8.4064516 3.292667-8.4064516h3.663215l2.972589 8.4490323 3.33796-8.4490323h2.957922l-4.680824 12.0017205h-4.064392l-2.86647-8.231828-3.209843 8.231828z"/><path d="m124.230463 34.6580645c1.203961 0 2.10898-.4025806 2.71549-1.208172.605647-.8047312.908902-1.8193549.908902-3.043871 0-1.2167742-.303255-2.2296774-.908902-3.0387097-.60651-.8090322-1.511529-1.2129032-2.71549-1.2129032-1.194039 0-2.093883.403871-2.700392 1.2129032-.60651.8090323-.909765 1.8219355-.909765 3.0387097 0 1.2245161.303255 2.2391398.909765 3.043871.606509.8055914 1.506353 1.208172 2.700392 1.208172m0 2.0219355c-1.700039 0-3.15851-.2529032-4.376275-.7591398-1.218196-.5066667-2.14651-1.252043-2.786666-2.2356989-.639726-.9836559-.959804-2.0765591-.959804-3.2791398 0-1.1948387.314902-2.2825806.945137-3.2623656.631098-.980215 1.557255-1.7268817 2.779765-2.2412903 1.222509-.5131183 2.688313-.7703226 4.397843-.7703226 1.719451 0 3.188274.2572043 4.405608.7703226 1.218196.5144086 2.144353 1.2610753 2.779333 2.2412903.635412.979785.952902 2.0675269.952902 3.2623656 0 1.2025807-.320079 2.2954839-.960235 3.2791398-.639726.9836559-1.568902 1.7290322-2.786236 2.2356989-1.217764.5062366-2.681843.7591398-4.391372.7591398"/><path d="m134.783906 36.4070538v-12.0017205h4.240392v2.2623656c.505569-.772043 1.197922-1.387957 2.077059-1.8468817.878706-.4593548 1.85749-.6886021 2.936784-.6886021.257961 0 .520667.0219354.787686.0653763v2.8855914c-.592274-.1668817-1.150902-.2511828-1.675451-.2511828-.841176 0-1.605137.1621505-2.292745.4864516-.687607.3243011-1.298431.8141936-1.833333 1.4701075v7.6184947z"/><path d="m146.654243 36.4070538v-14.6249463h4.240392v8.2193549h.272196l5.601804-5.5961291h3.547177l-5.185961 5.1453764 6.769961 6.8563441h-5.145412l-5.587569-6.0008603h-.272196v6.0008603z"/><path d="m163.338741 36.0244301v-2.372043c2.100353.6705376 3.896588 1.0055914 5.386118 1.0055914.792863 0 1.425686-.1277419 1.89847-.3819355.472353-.2554839.709177-.5797849.709177-.9733333 0-.3423656-.176863-.6305377-.529726-.8632258-.354156-.2258065-.893372-.4486022-1.619372-.6670968l-1.432157-.4369893c-1.480471-.4516129-2.574-.9509677-3.28102-1.4976344-.707019-.5393548-1.059882-1.2421505-1.059882-2.1096774 0-1.0417204.531451-1.9019355 1.597373-2.5793548 1.064196-.6778495 2.690902-1.0163441 4.878392-1.0163441 1.279882 0 2.802196.1419355 4.569529.4258064v2.2739785c-1.700039-.452043-3.108902-.6778494-4.225725-.6778494-.878706 0-1.538706.1148387-1.977412.344086-.439137.2296774-.659137.5268817-.659137.8907527 0 .2843011.143215.535914.429647.7544086.277372.2184946.782941.4339785 1.518431.6451613l1.232431.3604301c2.033922.5905376 3.366863 1.1625806 3.997098 1.716129.619883.5612903.930902 1.2313979.930902 2.0111828 0 1.0129032-.571137 1.9002151-1.712117 2.6619355-1.141412.7612903-2.800471 1.1415054-4.978471 1.1415054-1.852745 0-3.743882-.2180645-5.672549-.6554839"/></g></svg>